<?xml version="1.0" encoding="UTF-8" standalone="no"?>
<!-- Created with Inkscape (http://www.inkscape.org/) -->

<svg
   width="73.924988mm"
   height="73.924995mm"
   viewBox="0 0 73.924988 73.924995"
   version="1.1"
   id="svg1"
   xmlns:inkscape="http://www.inkscape.org/namespaces/inkscape"
   xmlns:sodipodi="http://sodipodi.sourceforge.net/DTD/sodipodi-0.dtd"
   xmlns="http://www.w3.org/2000/svg"
   xmlns:svg="http://www.w3.org/2000/svg">
  <sodipodi:namedview
     id="namedview1"
     pagecolor="#ffffff"
     bordercolor="#999999"
     borderopacity="1"
     inkscape:showpageshadow="2"
     inkscape:pageopacity="0"
     inkscape:pagecheckerboard="0"
     inkscape:deskcolor="#d1d1d1"
     inkscape:document-units="mm" />
  <defs
     id="defs1">
    <clipPath
       id="clip0_731_16651">
      <rect
         width="36"
         height="36"
         rx="18"
         fill=""
         id="rect3"
         x="0"
         y="0" />
    </clipPath>
  </defs>
  <g
     inkscape:label="Layer 1"
     inkscape:groupmode="layer"
     id="layer1"
     transform="translate(-58.864866,-119.98226)">
    <g
       clip-path="url(#clip0_731_16651)"
       id="g2"
       transform="matrix(2.0534719,0,0,2.0534719,58.864865,119.98226)">
      <path
         d="M 0,18 C 0,27.9411 8.05888,36 18,36 27.9411,36 36,27.9411 36,18 36,8.05888 27.9411,0 18,0 8.05888,0 0,8.05888 0,18 Z"
         fill="#d9008d"
         id="path1" />
      <path
         d="M 26.1788,8.15604 C 26.153,8.01049 26.0988,7.87145 26.0192,7.74686 25.9397,7.62228 25.8363,7.5146 25.7151,7.42997 25.594,7.34535 25.4573,7.28543 25.3129,7.25366 25.1685,7.22188 25.0193,7.21887 24.8738,7.24479 l -1.0012,0.18 -2.1825,3.82501 4.8825,-0.8663 z m -5.1862,-0.225 -4.6238,0.82125 -2.1825,3.80251 4.6238,-0.81 z M 13.5001,9.25853 9.38255,9.97854 C 9.09337,10.0283 8.83506,10.189 8.66272,10.4265 8.49038,10.664 8.41766,10.9594 8.46005,11.2498 l 0.3825,2.25 2.46375,-0.4388 z M 9.00005,14.6248 v 10.125 c 0,0.5967 0.23705,1.169 0.65901,1.591 0.42194,0.4219 0.99424,0.659 1.59104,0.659 h 13.5 c 0.5967,0 1.169,-0.2371 1.5909,-0.659 0.422,-0.422 0.6591,-0.9943 0.6591,-1.591 v -10.125 z m 11.54255,7.0875 -2.9925,2.25 c -0.1672,0.1253 -0.3659,0.2017 -0.574,0.2204 -0.2081,0.0188 -0.4173,-0.0208 -0.6042,-0.1142 -0.1868,-0.0934 -0.344,-0.237 -0.4538,-0.4148 -0.1099,-0.1777 -0.168,-0.3825 -0.168,-0.5914 v -4.5 c 0,-0.2089 0.0581,-0.4137 0.168,-0.5915 0.1098,-0.1777 0.267,-0.3213 0.4538,-0.4147 0.1869,-0.0935 0.3961,-0.133 0.6042,-0.1143 0.2081,0.0188 0.4068,0.0951 0.574,0.2205 l 2.9925,2.25 c 0.1397,0.1048 0.2531,0.2407 0.3312,0.3969 0.0781,0.1562 0.1188,0.3284 0.1188,0.5031 0,0.1746 -0.0407,0.3469 -0.1188,0.5031 -0.0781,0.1562 -0.1915,0.2921 -0.3312,0.3969 z"
         fill="#ffffff"
         id="path2" />
    </g>
  </g>
</svg>
